<svg width="47" height="47" viewBox="0 0 47 47" fill="none" xmlns="http://www.w3.org/2000/svg">
<path d="M21.2969 3.25879C13.6777 4.29609 7.31621 9.80391 5.17734 17.2119C4.7 18.8367 4.48887 20.2045 4.43379 21.9945C4.32363 25.3268 4.99375 28.4479 6.44414 31.3486C7.38047 33.2396 8.97774 35.4428 10.3271 36.7096L10.8504 37.2053L10.5016 37.5174C9.00527 38.8117 7.04082 40.1244 5.04883 41.1525C4.36953 41.5105 3.73613 41.8594 3.65352 41.9328C3.38731 42.1531 3.4332 42.7223 3.72695 42.9518C3.86465 43.0619 4.0666 43.1445 4.18594 43.1445C4.41543 43.1445 6.45332 42.1256 7.57324 41.4463C10.1711 39.8766 12.6588 37.7377 14.66 35.3418C15.633 34.1852 17.2395 31.8719 17.625 31.0732C17.827 30.6602 17.827 30.6234 17.6893 30.3297C17.5148 29.9625 17.625 29.99 16.1104 29.9717C15.0914 29.9625 14.8068 29.9166 14.1826 29.7146C13.7787 29.577 13.3656 29.4117 13.2738 29.3475C13.1178 29.2373 13.1729 29.2006 13.8246 28.9711C14.7793 28.6314 16.2113 27.8971 16.9182 27.3738C18.2859 26.3641 19.1764 25.3268 20.4248 23.2246C21.6916 21.1041 22.0772 20.8012 23.5 20.7828C23.9773 20.7828 24.4639 20.7277 24.5648 20.6727C24.675 20.6176 26.107 19.2039 27.7502 17.524L30.7428 14.4855L31.1191 15.0639C31.3211 15.376 31.4863 15.734 31.4863 15.8533C31.4863 15.9818 31.3395 16.3398 31.165 16.652C30.9906 16.9641 30.807 17.4322 30.752 17.6984C30.55 18.6348 30.9539 19.6262 31.6607 19.9199C31.9453 20.0301 32.6889 20.0117 32.9826 19.8832C33.1295 19.8098 33.1203 19.8648 32.9275 20.3881C32.8082 20.7094 32.285 21.8201 31.7709 22.8391C29.9533 26.4742 29.7973 27.5666 30.5775 31.3945L30.8713 32.8266L30.5684 33.1203C30.2838 33.4049 30.2746 33.4508 30.3205 33.9465C30.3389 34.2311 30.4766 34.7359 30.6051 35.0664L30.8438 35.6539L30.5684 35.8742C30.192 36.168 30.2104 36.4709 30.6785 37.6092L31.0641 38.5455L30.752 38.8301C30.4766 39.0871 30.4582 39.133 30.5133 39.5461C30.6326 40.4273 30.6785 42.0154 30.5959 42.6121C30.4674 43.5301 30.6602 43.8789 31.266 43.8789C31.8902 43.8789 32.0279 43.5301 32.1014 41.8777L32.1564 40.666H32.4227C32.6889 40.666 33.1387 40.2988 33.1387 40.0785C33.1387 40.0234 33.5426 39.7389 34.0475 39.4451C35.3143 38.6924 36.4158 37.8387 37.5816 36.7187C40.5283 33.873 42.3551 30.5225 43.1996 26.4283C43.5209 24.8678 43.6127 21.7191 43.374 20.0576C42.5938 14.4121 39.4635 9.43672 34.7451 6.31562C33.7721 5.66386 32.0555 4.79179 30.8897 4.34199C29.7789 3.91972 27.9063 3.44238 26.6395 3.26797C25.3818 3.09355 22.5545 3.08437 21.2969 3.25879ZM26.4834 4.73672C31.6057 5.44355 36.1496 8.29844 39.0229 12.6129C40.5742 14.9445 41.5014 17.3771 41.9145 20.1953C42.1439 21.7742 42.0522 24.6934 41.7309 26.2355C41.125 29.1088 39.7939 31.9086 38.0039 34.1025C37.2145 35.0756 35.865 36.3607 34.8645 37.1135C34.0291 37.7377 32.6889 38.6006 32.643 38.5363C32.6246 38.518 32.5512 38.3344 32.4686 38.1232L32.3125 37.7285L32.542 37.6734C32.799 37.6092 33.1387 37.2328 33.1387 37.0033C33.1479 36.9207 32.8908 36.3516 32.5695 35.7457L31.9912 34.635L32.2941 34.3779C32.6613 34.0658 32.6705 33.9189 32.3125 32.4227C31.6516 29.6871 31.4772 28.0348 31.7066 26.8781C31.8902 25.9418 32.2115 25.1523 33.2947 23.0318C34.4238 20.8195 34.7268 19.9566 34.7359 18.9561C34.7359 18.4328 34.69 18.1391 34.5799 17.9279C34.4055 17.6066 34.0107 17.2578 33.8088 17.2578C33.4691 17.2578 33.0102 17.5883 32.7072 18.0564C32.5236 18.3227 32.34 18.543 32.3033 18.543C32.2574 18.543 32.2023 18.442 32.1656 18.3135C32.1197 18.1391 32.2207 17.8545 32.5328 17.2303C33.2121 15.8717 33.1111 15.2475 31.9453 13.6502C31.4129 12.9342 31.0365 12.7047 30.5408 12.7965C30.2563 12.8516 29.8707 13.2096 27.9613 15.2199C26.7313 16.5143 25.3084 17.9646 24.8035 18.4236C23.8947 19.2682 23.8764 19.2773 23.4174 19.2773C22.2699 19.2773 21.1867 19.7363 20.4799 20.5258C20.2504 20.792 19.6904 21.609 19.2498 22.3434C18.2125 24.06 17.7994 24.6016 16.8631 25.492C15.6881 26.5936 14.2744 27.3555 12.3467 27.9062C11.2451 28.2275 11.0156 28.4295 11.0156 29.0721C11.0156 29.4301 11.0615 29.5311 11.3369 29.7973C11.7684 30.2012 12.6221 30.7061 13.3197 30.9723C13.8521 31.1742 14.3295 31.2844 15.3576 31.4404L15.6973 31.4955L15.1557 32.2941C14.5314 33.2121 13.3014 34.7451 12.4936 35.6172L11.952 36.2139L11.2451 35.5254C6.91231 31.2752 5.02129 25.0238 6.25137 18.9652C6.92149 15.6238 8.72988 12.2916 11.1809 9.8498C12.6771 8.37187 14.0357 7.408 15.9818 6.43496C19.2314 4.81933 22.8391 4.23183 26.4834 4.73672Z" fill="white"/>
<path d="M15.6055 7.82109C14.7793 8.10566 14.1367 8.54629 13.5033 9.23477C11.851 11.0432 11.8143 13.2922 13.4391 14.0908C13.8889 14.3111 14.0357 14.3387 14.6691 14.3111C17.6801 14.1734 20.1861 9.99668 18.2951 8.25254C17.625 7.62832 16.6244 7.46309 15.6055 7.82109ZM17.1109 9.18887C17.6525 9.43672 17.5883 10.3639 16.9641 11.3002C15.9727 12.7781 13.9623 13.4023 13.7236 12.3008C13.5768 11.6307 14.3295 10.2537 15.1465 9.68457C15.5504 9.40918 16.349 9.09707 16.6795 9.08789C16.7897 9.08789 16.9824 9.13379 17.1109 9.18887Z" fill="white"/>
<path d="M10.6943 14.5314C10.1344 14.7976 9.41837 15.5504 9.16134 16.1287C8.93185 16.6611 8.84005 17.5791 8.98692 18.0197C9.32657 19.0478 10.3363 19.4058 11.4195 18.8734C12.3926 18.3961 13.0352 17.3955 13.1086 16.2388C13.1453 15.6697 13.1178 15.4861 12.9525 15.174C12.5486 14.3662 11.6031 14.1 10.6943 14.5314ZM11.6399 16.248C11.5848 16.7529 11.2635 17.2578 10.8045 17.5332C10.4557 17.7443 10.3731 17.6984 10.3731 17.3129C10.3731 16.8998 10.7402 16.248 11.1074 15.991C11.594 15.6697 11.6858 15.7156 11.6399 16.248Z" fill="white"/>
</svg>
